<svg width="512" height="512" viewBox="0 0 512 512" fill="none" xmlns="http://www.w3.org/2000/svg">
  <rect x="32" y="32" width="448" height="448" rx="144" fill="#FFDBCA"/>
  <g transform="translate(56 56) scale(4)">
    <path d="M32 45L43 56L68 29" stroke="#2C694D" stroke-width="7" stroke-linecap="round" stroke-linejoin="round"/>
    <path d="M50 21C64 20 74 29 75 45C61 45 51 36 50 21Z" fill="#2C694D"/>
    <path d="M56 28C61 33 65 37 70 42" stroke="#B6EFCF" stroke-width="2.5" stroke-linecap="round"/>
    <circle cx="70" cy="35" r="10" fill="#FFDF9C"/>
    <circle cx="70" cy="35" r="4.5" fill="#8E6604"/>
    <path d="M27 51C33 40 42 35 52 35C65 35 74 43 77 51Z" fill="#FCF8F4"/>
    <rect x="20" y="47" width="60" height="17" rx="8.5" fill="#FCF8F4" stroke="#9B2F00" stroke-width="3"/>
    <path d="M39 47L45 44M51 44L57 47M61 50L67 48" stroke="#C2410C" stroke-width="2.5" stroke-linecap="round"/>
    <path d="M23 56C32 61 68 61 77 56C75 73 64 82 50 82C36 82 25 73 23 56Z" fill="#9B2F00"/>
    <path d="M34 66C42 71 58 72 66 66" stroke="#FFB59D" stroke-width="4" stroke-linecap="round"/>
    <rect x="37" y="79" width="26" height="6" rx="3" fill="#C2410C"/>
  </g>
</svg>
